<?xml version="1.0" encoding="utf-8"?>
<!-- Generator: Adobe Illustrator 18.0.0, SVG Export Plug-In . SVG Version: 6.00 Build 0)  -->
<!DOCTYPE svg PUBLIC "-//W3C//DTD SVG 1.1//EN" "http://www.w3.org/Graphics/SVG/1.1/DTD/svg11.dtd">
<svg version="1.1" id="Layer_1" xmlns:svg="http://www.w3.org/2000/svg"
	 xmlns="http://www.w3.org/2000/svg" xmlns:xlink="http://www.w3.org/1999/xlink" x="0px" y="0px" viewBox="0 0 1024 1024"
	 enable-background="new 0 0 1024 1024" xml:space="preserve">
<symbol  id="svg_5" viewBox="-59.6 -59.6 119.3 119.3">
	<g id="svg_6_1_">
		<title>Layer 1</title>
		<g id="svg_1_1_">
			<path id="svg_3_1_" fill="none" stroke="#4F4C4C" stroke-width="2" stroke-miterlimit="1" d="M58.6,0c0,32.4-26.2,58.6-58.6,58.6
				c-32.4,0-58.6-26.2-58.6-58.6c0-32.4,26.3-58.6,58.6-58.6C32.4-58.6,58.6-32.4,58.6,0z"/>
			<path id="svg_2_1_" fill="#C82128" d="M49-0.9c0,21.6-57.3,34.2-79.9,39.7c-17.8,4.3,24-17.1,24-38.7c0-21.6-41.8-43.7-24-39.6
				C-13.3-35.5,49-22.6,49-0.9"/>
		</g>
	</g>
</symbol>
<path fill="#FFFFFF" d="M795.9,1022.3H226.3c-124.8,0-227-102.1-227-227V227c0-124.8,102.1-227,227-227h569.6
	c124.8,0,227,102.2,227,227v568.3C1022.9,920.1,920.8,1022.3,795.9,1022.3z"/>
<g>
	<title>Layer 1</title>
	<g id="layer6">
		<path id="path4146" fill="none" d="M263.5,309.5c0,1.2,0,2.2,0.1,3.1c0,0.3,0.1,0.5,0.1,0.8c0.1,0.5,0.2,1,0.3,1.4
			c0,0.1,0.1,0.2,0.1,0.3c0.2,0.4,0.3,0.7,0.5,1c0.2,0.4,0.5,0.7,0.8,1.1c0.4,0.4,0.7,0.6,1.1,0.9c0.2,0.2,0.5,0.3,0.7,0.4
			c0.1,0.1,0.2,0.1,0.3,0.2c0.2,0.1,0.4,0.2,0.6,0.2c0.5,0.1,1.2,0.3,2.1,0.4c0.8,0.1,1.8,0.1,3.1,0.1h-10V309.5
			C263.5,309.5,263.5,309.5,263.5,309.5z"/>
		<path id="path4146-5-3-7" fill="none" d="M263.5,297.4c0-1.7,0.1-3.2,0.3-4.4c0.2-1,0.5-1.7,0.9-2.3c0.5-0.7,1.1-1.4,1.9-1.9
			c0.5-0.3,0.9-0.5,1.4-0.7c0.3-0.1,0.7-0.2,1.1-0.3c0.9-0.2,2.3-0.3,4.4-0.3h-10V297.4C263.5,297.4,263.5,297.4,263.5,297.4z"/>
	</g>
	<g id="svg_13">
		<path d="M768.9,743.6c0-40.2,32-72.6,71.7-73.6l0-1.6h-10.9h-14.1h-21.1l-21.1,25.4l-21.8-25.4h-22.4h-15.8h-12.3v110.7h77.3
			C772.5,768.6,768.9,756.5,768.9,743.6z M842.3,682.6c33.5,0,60.6,27.3,60.6,60.9s-27.1,60.9-60.6,60.9
			c-33.5,0-60.6-27.3-60.6-60.9S808.9,682.6,842.3,682.6z M923.6,930.8H772.4V813.5h13h16.8H826l23,26.9l22.4-26.9h22.3h14.9h11.6
			L923.6,930.8z M767.1,545c31.6,0,57.2,25.7,57.2,57.4c0,31.8-25.6,57.4-57.2,57.4c-31.6,0-57.2-25.7-57.2-57.4
			C709.8,570.7,735.5,545,767.1,545z M708.1,633.8h-72.3V530.3h11.5h14.8h20.9l20.3,23.8l19.8-23.8h19.7h13.2h10.2l0,1.4
			c-37.2,0.8-67.1,31.2-67.1,68.7C699.2,612.7,702.6,623.9,708.1,633.8z M644,468.6c0-29.6,24-53.7,53.5-53.7s53.5,24,53.5,53.7
			c0,29.6-24,53.7-53.5,53.7S644,498.2,644,468.6L644,468.6z M326.8,664.1h15.8H355v110.7h-77.3c5.8-10.6,9.5-22.6,9.5-35.6
			c0-40.1-32-72.6-71.7-73.6l0-1.5h10.9h14.1h21.1l21.1,25.4l21.8-25.4H326.8L326.8,664.1z M213.7,678.2c33.5,0,60.6,27.3,60.6,60.9
			S247.2,800,213.7,800c-33.5,0-60.6-27.3-60.6-60.9S180.2,678.2,213.7,678.2z M253.8,809.1h16.8h13v117.3H132.4l3.4-117.3h11.5
			h14.9h22.3L207,836l23.1-26.9H253.8L253.8,809.1z M231.8,598c0-31.8,25.6-57.5,57.2-57.5c31.6,0,57.2,25.7,57.2,57.5
			c0,31.7-25.6,57.4-57.2,57.4C257.4,655.5,231.8,629.7,231.8,598L231.8,598z M393.9,525.9h14.9h11.5v103.5h-72.3
			c5.5-9.9,8.9-21.1,8.9-33.3c0-37.5-29.9-67.9-67.1-68.8l0-1.4h10.2h13.2h19.7l19.8,23.8l20.3-23.8L393.9,525.9L393.9,525.9
			L393.9,525.9z M305,464.2c0-29.6,24-53.7,53.5-53.7c29.5,0,53.5,24.1,53.5,53.7c0,29.6-24,53.7-53.5,53.7
			C329,517.9,305,493.9,305,464.2L305,464.2z M811.8,144.6H278.5v-18.8h533.3V144.6z M811.8,387.7H278.5v-18.8h533.3V387.7z
			 M153.2,194.7c0-25.2,20.4-45.7,45.5-45.7c25.2,0,45.5,20.5,45.5,45.7s-20.4,45.7-45.5,45.7C173.5,240.4,153.2,219.9,153.2,194.7z
			 M173,470.7l-18.1,3h-15.6v-16.9l18.3-4h3.1v-81.3v-7.7v-10.4h-2.4l-0.8-17.1h-15.6l2.5-89h8.7h11.2h16.8l16.8,20.2l17.3-20.2
			h29.2l74.2-24.7l7,21.3l-81.3,27l-4.2,82.4h-2.9v10.4v7.7v81.3h3.1l18.3,4v16.9h-15.6l-18.2-3l-0.2,3h-20.1v-18.8v-2v-81.3h-11.4
			v81.3v2v18.8h-20.1L173,470.7L173,470.7z"/>
	</g>
	
		<use xlink:href="#svg_5"  width="119.3" height="119.3" id="svg_8" x="-59.6" y="-59.6" transform="matrix(1.4774 0 0 1.5019 528.0004 253.7652)" overflow="visible"/>
</g>
<defs>
	
	
		<inkscape:perspective  inkscape:persp3d-origin="512 : 341.33333 : 1" inkscape:vp_z="1024 : 512 : 1" inkscape:vp_x="0 : 512 : 1" inkscape:vp_y="0 : 1000 : 0" sodipodi:type="inkscape:persp3d" id="perspective4094">
		</inkscape:perspective>
</defs>
<sodipodi:namedview  inkscape:window-maximized="0" inkscape:window-x="36" inkscape:current-layer="layer2" inkscape:showpageshadow="false" inkscape:window-y="0" inkscape:document-units="px" inkscape:window-height="1036" inkscape:window-width="1920" fit-margin-bottom="0" inkscape:pageshadow="2" inkscape:pageopacity="0.0" fit-margin-right="0" inkscape:guide-bbox="true" fit-margin-top="0" fit-margin-left="0" borderopacity="1.0" inkscape:zoom="0.64" bordercolor="#666666" pagecolor="#ffffff" showgrid="false" showguides="true" borderlayer="true" showborder="false" inkscape:cx="1052.2646" inkscape:cy="508.89593" id="base">
	<sodipodi:guide  orientation="0,1" position="-10.429825,956.71547" id="guide3101"></sodipodi:guide>
	<sodipodi:guide  orientation="1,0" position="956.5625,59.8125" id="guide3103"></sodipodi:guide>
	<sodipodi:guide  orientation="0,1" position="1246.875,315.625" id="guide3105"></sodipodi:guide>
	<sodipodi:guide  orientation="1,0" position="67.351921,64.523494" id="guide3107"></sodipodi:guide>
	<sodipodi:guide  orientation="0,1" position="961.5,67.5" id="guide3109"></sodipodi:guide>
	<sodipodi:guide  orientation="1,0" position="319.08193,67.707547" id="guide3111"></sodipodi:guide>
	<sodipodi:guide  orientation="1,0" position="511.68014,67.707547" id="guide3113"></sodipodi:guide>
	<sodipodi:guide  orientation="1,0" position="706.1875,64.734375" id="guide3115"></sodipodi:guide>
	<sodipodi:guide  orientation="0,1" position="-21.213203,1024" id="guide3117"></sodipodi:guide>
	<sodipodi:guide  orientation="0,1" position="0,0" id="guide3119"></sodipodi:guide>
	<sodipodi:guide  orientation="1,0" position="0,1042.6289" id="guide3121"></sodipodi:guide>
	<sodipodi:guide  orientation="0,1" position="-6.8942911,705" id="guide3123"></sodipodi:guide>
	<sodipodi:guide  orientation="1,0" position="1024,1037.75" id="guide3125"></sodipodi:guide>
	<sodipodi:guide  orientation="0,1" position="-27.223611,512.65241" id="guide3127"></sodipodi:guide>
	<inkscape:grid  type="xygrid" snapvisiblegridlinesonly="true" enabled="true" visible="true" empspacing="5" id="grid4235">
		</inkscape:grid>
	<sodipodi:guide  orientation="1,0" position="511.68014,430.8932" id="guide4003"></sodipodi:guide>
</sodipodi:namedview>
</svg>
